<svg xmlns="http://www.w3.org/2000/svg" xmlns:xlink="http://www.w3.org/1999/xlink" viewBox="0 0 1024 226.58"><defs><style>.cls-1,.cls-7{fill:none;}.cls-2{fill:#053166;}.cls-16,.cls-3{fill:#4170c4;}.cls-3{fill-rule:evenodd;}.cls-4{fill:#e5cf48;}.cls-5{fill:url(#radial-gradient);}.cls-6{fill:#2763aa;}.cls-7{stroke:#e6e9ed;stroke-miterlimit:10;}.cls-8{font-size:25.5px;}.cls-10,.cls-17,.cls-8{fill:#fff;}.cls-10,.cls-8{font-family:MyriadPro-Bold, Myriad Pro;font-weight:700;}.cls-9{letter-spacing:-0.03em;}.cls-10{font-size:16.54px;}.cls-11{letter-spacing:-0.03em;}.cls-12{letter-spacing:-0.02em;}.cls-13{letter-spacing:-0.02em;}.cls-14{letter-spacing:0em;}.cls-15{fill:#ebf2f7;}.cls-18{clip-path:url(#clip-path);}</style><radialGradient id="radial-gradient" cx="0.55" cy="-4.41" r="0.92" gradientTransform="matrix(114.8, 0, 0, -109.42, 456.73, -356.09)" gradientUnits="userSpaceOnUse"><stop offset="0" stop-color="#5b5b5b"/><stop offset="0.06" stop-color="#6f6f6f"/><stop offset="0.18" stop-color="#9b9b9b"/><stop offset="0.33" stop-color="#dcdcdc"/><stop offset="0.49" stop-color="#9b9b9b"/><stop offset="0.55" stop-color="#a0a0a0"/><stop offset="0.61" stop-color="#adadad"/><stop offset="0.67" stop-color="#c3c3c3"/><stop offset="0.72" stop-color="#dcdcdc"/><stop offset="0.75" stop-color="#cfcfcf"/><stop offset="0.8" stop-color="#b8b8b8"/><stop offset="0.85" stop-color="#a8a8a8"/><stop offset="0.92" stop-color="#9e9e9e"/><stop offset="1" stop-color="#9b9b9b"/></radialGradient><clipPath id="clip-path" transform="translate(0.25 -17.7)"><rect class="cls-1" x="117.24" y="-167.06" width="789.02" height="637.45"/></clipPath></defs><title>sks_ser_banner</title><g id="Layer_1" data-name="Layer 1"><rect class="cls-2" y="85.95" width="1024" height="47.36"/></g><g id="Layer_2" data-name="Layer 2"><path class="cls-3" d="M572.62,50.93A93.74,93.74,0,0,1,584,60.87a95.79,95.79,0,0,1,0,133.07,90.52,90.52,0,0,1-59.72,27.43c2,.74,4.34,1.88,5.76,2.35,2.8.93,5.3,2.41,7.79,3.47,2.23,1,13.64,7.5,13.64,9.15,0,.71-.57.87-1,1.25h-2.26c-2.22-1.54-4-3.4-6.22-5-1.62-1.21-5.08-3.28-6.92-4.34s-11.7-5.86-15-6.7h-2c-3.35.83-13,5.6-14.93,6.7s-5.11,3.06-6.92,4.34c-2.24,1.6-4,3.5-6.23,5h-2.26c-.43-.38-1-.54-1-1.25,0-2.58,18.52-12.32,26.82-15a90.46,90.46,0,0,1-59.35-27.4,95.79,95.79,0,0,1,0-133.07,92.85,92.85,0,0,1,10.48-9.24l-.25,0c1.15-15,7.72-11.93,21.27-17.53.6,5.56-8.78,17.51-19.16,17.67a91.48,91.48,0,0,0-11.48,10,94.62,94.62,0,0,0,0,131.42,89,89,0,0,0,128.1,0,94.62,94.62,0,0,0,0-131.42,91.27,91.27,0,0,0-11.52-10c-10.8.71-20.86-11.89-20.25-17.64,13.35,5.52,19.93,2.67,21.22,16.87m9.21,3.29h0c5.27-6.88.3-19-4-20.77-1.26,11.15-5.75,14.42,4,20.77m8.7,11.56h0c6.67-5.56,4.5-18.46.73-21.13-3.69,10.61-8.8,12.82-.73,21.13m-7,.85h0C580.42,55.79,576,59,565.24,56.87c.41,4.46,10.29,12.6,18.27,9.76m9.16,14.31h0c-2-11.08-6.69-8.31-17.25-11.45,0,4.47,9,13.52,17.25,11.45m7.33-2.3h0c6.94-5.79,4.68-19.24.76-22-3.85,11.06-9.18,13.36-.76,22m5.87,13.29h0c8.56-3,11.23-16.36,8.55-20.34-7.54,9-13.34,9.28-8.55,20.34m-3.44,7.41h0c.41-12.48-5.3-10.57-16-16.42-1.07,4.85,6.61,16.76,16,16.42m9.36,8.41h0c9.71-3.39,12.73-18.56,9.69-23.07-8.54,10.2-15.13,10.52-9.69,23.07M606,116.24h0c1.8-12.36-4.09-11.08-14.08-18.07-1.6,4.7,4.7,17.38,14.08,18.07m8,7.45h0c10.59-1.64,16.59-16.6,14.34-21.8-10.7,8.84-17.51,7.93-14.34,21.8m-.59,16.16h0c-.95-14.85,5.92-12.78,18.45-20.14,1.45,5.74-7.24,20.2-18.45,20.14M607,138.28h0c4.61-14.86-2.89-14.42-13.81-24.93-2.89,5.48,2.41,22.28,13.81,24.93m1.77,19.53h0c11.73,2.05,23.44-11.58,23-17.85-14.45,5.5-21.29,2.12-23,17.85m-6.62,13.32h0c9.81,6.72,26.18-.82,28.36-6.73-15.45-1-20.25-6.89-28.36,6.73M601,158.77h0c6.73-14.16-.8-14.79-10.19-26.82-3.66,5.05-.8,22.56,10.19,26.82m-8.56,25.55h0c8.17,8.61,25.76,4.67,29.15-.65-14.89-4.19-18.33-11-29.15.65m-3.16-5.27h0c10.52-10.7,3.91-13.6-.78-27.36-4.89,3.43-7.81,20.11.78,27.36M582,198.49h0c8.17,8.61,25.76,4.67,29.15-.65-14.89-4.19-18.33-11-29.15.65m-10.54-.33h0c14.65-6.71,9.16-12.12,9.76-27.68-6.22,1.57-15.56,17.16-9.76,27.68m-3.67,11.22h0c6.17,11.07,25.44,11.61,30.37,7-14.31-8.26-16.07-16.18-30.37-7m-16.24,7.55h0c3.77,11.8,22.16,16,27.78,12.49-12.14-10.64-12.29-18.58-27.78-12.49m-4.11-5.2h0c17.59-2.37,13.57-9.81,19.25-26-7-.33-21.93,13.08-19.25,26M455.28,54.22h0c9.72-6.35,5.22-9.62,4-20.77-4.27,1.78-9.23,13.89-4,20.77m-8.7,11.56h0c8.08-8.31,3-10.52-.73-21.13-3.76,2.67-5.93,15.57.73,21.13m8.67.44h0c8,2.85,17.85-5.3,18.27-9.76-10.81,2.12-15.19-1.07-18.27,9.76m-10.8,14.72h0c8.21,2.07,17.25-7,17.24-11.45-10.55,3.14-15.22.37-17.24,11.45m-7.33-2.3h0c8.42-8.66,3.08-11-.76-22-3.93,2.78-6.19,16.23.76,22m-5.88,13.29h0c4.8-11.06-1-11.35-8.54-20.34-2.68,4,0,17.35,8.54,20.34m4.26,7.41h0c9.4.34,17.08-11.57,16-16.42-10.7,5.85-16.42,3.94-16,16.42m-10.17,8.41h0c5.43-12.55-1.15-12.87-9.7-23.07-3,4.51,0,19.68,9.7,23.07m5.78,8.49h0c9.38-.69,15.69-13.37,14.09-18.07-10,7-15.88,5.71-14.09,18.07m-8,7.45h0c-10.58-1.64-16.58-16.6-14.33-21.8,10.7,8.84,17.5,7.93,14.33,21.8m.59,16.16h0c1-14.85-5.92-12.78-18.45-20.14-1.45,5.74,7.25,20.2,18.45,20.14m7.6-1.57h0c11.41-2.65,16.7-19.45,13.82-24.93-10.93,10.51-18.42,10.07-13.82,24.93m-3,19.53h0c-1.67-15.73-8.5-12.35-23-17.85-.49,6.27,11.22,19.9,23,17.85m6.61,13.32h0c-8.11-13.62-12.91-7.71-28.35-6.73,2.18,5.91,18.54,13.45,28.35,6.73m1.16-12.36h0c11-4.26,13.85-21.77,10.19-26.82-9.39,12-16.93,12.66-10.19,26.82m8.56,25.55h0c-10.83-11.62-14.26-4.84-29.15-.65,3.39,5.32,21,9.26,29.15.65m3.16-5.27h0c8.58-7.25,5.67-23.93.78-27.36-4.7,13.76-11.31,16.66-.78,27.36m7.32,19.44h0c-10.82-11.62-14.25-4.84-29.14-.65,3.39,5.32,21,9.26,29.14.65m10.95-.74h0c5.8-10.51-3.54-26.11-9.76-27.68.61,15.56-4.89,21,9.76,27.68m4.08,10.4h0c-14.3-9.18-16-1.26-30.36,7,4.92,4.62,24.2,4.09,30.36-7m15.43,8h0c-15.49-6.09-15.65,1.84-27.79,12.49,5.62,3.49,24-.69,27.79-12.49m4.1-4.39h0c2.69-12.91-12.19-26.32-19.24-26,5.68,16.18,1.66,23.62,19.24,26" transform="translate(0.25 -17.7)"/><path class="cls-4" d="M455.53,191.32s1.9-10.2,0-14.3c-1.33-2.88-.71,6.55-6.46,7.15s-12.17-1.59-12.71,2.91c-.51,4.18,18.86,8.64,19.17,4.24" transform="translate(0.25 -17.7)"/><path class="cls-4" d="M584.34,191.32s-1.9-10.2,0-14.3c1.33-2.88.7,6.55,6.46,7.15s12.16-1.59,12.71,2.91c.51,4.18-18.86,8.64-19.17,4.24" transform="translate(0.25 -17.7)"/><path class="cls-4" d="M608.85,205.82s-2.53-20.66-4.22-22.84-13.24,1-15.73-4.37,22.2-7.48,31.05-7.68,24.16,0,24.16,0-21.57,13.86-21.36,19,17.07,7,25.29,13.91a57.94,57.94,0,0,0-19,.4c-9.49,2-19.27,8.72-20.23,1.59" transform="translate(0.25 -17.7)"/><path class="cls-4" d="M431,205.82s2.53-20.66,4.21-22.84,13.24,1,15.74-4.37-22.2-7.48-31.05-7.68-24.16,0-24.16,0,21.56,13.86,21.35,19-17.06,7-25.28,13.91a57.94,57.94,0,0,1,19,.4c9.49,2,19.27,8.72,20.23,1.59" transform="translate(0.25 -17.7)"/><path class="cls-3" d="M519.47,17.7c-42.18,27.37-65.67,5.06-93.68,26.56,32.87,34.16-21.85,149.6,45.21,169.41,25.71,7.6,41.1,15,48.47,21.39,7.38-6.42,22.76-13.79,48.48-21.39C635,193.86,580.29,78.42,613.16,44.26c-28-21.5-51.5.81-93.69-26.56" transform="translate(0.25 -17.7)"/><path class="cls-5" d="M519.47,17.7h0c-42.18,27.37-65.67,5.06-93.68,26.56,9.33,9.7,11.6,26,11.6,44.74,0,17.74-2,37.71-2,56.5,0,31.3,5.62,59.31,35.63,68.17,25.71,7.6,41.1,15,48.47,21.39,7.38-6.42,22.76-13.79,48.48-21.39,30-8.86,35.63-36.87,35.63-68.17,0-18.79-2-38.76-2-56.5,0-18.77,2.27-35,11.61-44.74-28-21.5-51.5.81-93.69-26.56h0c42.19,27.37,65.67,5.06,93.69,26.56-9.34,9.7-11.61,26-11.61,44.74,0,17.74,2,37.71,2,56.5,0,31.3-5.63,59.31-35.63,68.17-25.72,7.6-41.1,15-48.48,21.39-7.37-6.42-22.76-13.79-48.47-21.39-30-8.86-35.63-36.87-35.63-68.17,0-18.79,2-38.76,2-56.5,0-18.77-2.27-35-11.6-44.74,28-21.5,51.5.81,93.68-26.56Z" transform="translate(0.25 -17.7)"/><path class="cls-6" d="M519.47,227c-9.64-6.58-25.25-13.07-46.52-19.35-15.24-4.5-24.23-14.89-28.29-32.69-3.84-16.85-2.73-37.87-1.65-58.2,1.47-27.79,2.87-54.2-7.88-71.06,9.53-5.44,18.71-5.75,29.88-6.13,14.47-.49,32.3-1.09,54.46-14.34,22.17,13.25,40,13.85,54.47,14.34,11.17.38,20.35.69,29.87,6.13-10.75,16.86-9.35,43.27-7.87,71.06,1.07,20.33,2.19,41.35-1.66,58.2-4.06,17.8-13,28.19-28.29,32.69-21.27,6.28-36.87,12.77-46.52,19.35" transform="translate(0.25 -17.7)"/><path class="cls-7" d="M519.47,227c-9.64-6.58-25.25-13.07-46.52-19.35-15.24-4.5-24.23-14.89-28.29-32.69-3.84-16.85-2.73-37.87-1.65-58.2,1.47-27.79,2.87-54.2-7.88-71.06,9.53-5.44,18.71-5.75,29.88-6.13,14.47-.49,32.3-1.09,54.46-14.34,22.17,13.25,40,13.85,54.47,14.34,11.17.38,20.35.69,29.87,6.13-10.75,16.86-9.35,43.27-7.87,71.06,1.07,20.33,2.19,41.35-1.66,58.2-4.06,17.8-13,28.19-28.29,32.69C544.72,213.93,529.12,220.42,519.47,227Z" transform="translate(0.25 -17.7)"/><path class="cls-2" d="M596.31,151.27l-153.58-.16c-.07-10.94.1-22.27.57-34q.29-6.72.67-13.27L594.7,104c.17,4.34.42,8.75.64,13.21.61,11.44,1.21,23.1,1,34.11" transform="translate(0.25 -17.7)"/><text class="cls-8" transform="translate(445.37 108.68) scale(1.02 1)">SO<tspan class="cls-9" x="32.05" y="0">C</tspan><tspan x="46.48" y="0">CERKIDS</tspan></text><text class="cls-10" transform="translate(445.71 127.66) scale(0.95 1)"><tspan class="cls-11">C</tspan><tspan class="cls-12" x="9.36" y="0">O</tspan><tspan class="cls-13" x="20.95" y="0">A</tspan><tspan x="31.4" y="0">CHING SE</tspan><tspan class="cls-14" x="101.13" y="0">R</tspan><tspan x="110.86" y="0">VICES</tspan></text><path class="cls-15" d="M444.08,103.62H595.79c-1-22.91-.67-44,8.49-58.16-9.53-5.38-18.71-5.68-29.88-6.05-14.47-.49-32.3-1.08-54.47-14.18-22.16,13.1-40,13.69-54.46,14.18-11.17.37-20.35.67-29.88,6.05,9.16,14.2,9.5,35.25,8.49,58.16" transform="translate(0.25 -17.7)"/><path class="cls-2" d="M540.8,95.38l1-.52c2.23.88,1.18-.44,1.18-.44.49-.17.77-.94.77-.94a2.08,2.08,0,0,1,.38-.44,4.92,4.92,0,0,1,2-1.06c6.33-1.6,8.15-3.73,8.15-3.73.82.33,2.49-.91,2.49-.91a33.76,33.76,0,0,0,3.06,3.93l-.16,2.38-5.78.88-3.19-.18h-.1c-2.38,0-2,.85-2,.85l-3.07,1.1,0,0a.43.43,0,0,0,.42.69l2.09-.62L547,97s-1.55.55-1.63.88a.36.36,0,0,0,0,.14.41.41,0,0,0,.54.36l1.7-.64-1.76,1.1c-.32.39-.19.56,0,.64a.62.62,0,0,0,.53,0l2-1.14-1.26,1.26a.37.37,0,0,0-.08.44c.09.17.29.15.46.09a1.14,1.14,0,0,0,.41-.29,7.8,7.8,0,0,1,2.52-1.61,10.8,10.8,0,0,0,2.86-1.25,22.9,22.9,0,0,0,5.74,0,13,13,0,0,0,2.49,7.56h9.63l1.32-1.9a11.54,11.54,0,0,0,1.16-10.81l-.44-.51-1.6-5.58c-1.85-8.8-9.25-7.56-9.25-7.56.23-2.09-.69-1.83-.69-1.83.62-6.61-4.5-4.7-4.5-4.7-3.93,1.54-2.73,4.92-2.73,4.92a8.56,8.56,0,0,0,.75,3l.14,1.25c-1.78.81-2.6,3.88-2.6,3.88-.87.16-8.52,6.34-8.52,6.34a7.07,7.07,0,0,1-2.79,1c-1.46.2-1.54,1.3-1.54,1.3L539.72,95c-.05,1.07,1.08.41,1.08.41" transform="translate(0.25 -17.7)"/><path class="cls-2" d="M472.56,103.7a48.44,48.44,0,0,0,4.66-1.57,8.39,8.39,0,0,0,1.29,1.57h8.18a8.78,8.78,0,0,0-.78-3.24,6.47,6.47,0,0,1-.69-1.94,1.17,1.17,0,0,0-.18-.66c.2-.11.06-.8.06-.8,0-1.56-.06-3.53-.06-3.53.26-.83,1-5.5,1-5.5s.58-1.2.66-4.91c0,0,.35-3.82.35-3.82l1.4-1.56a4.37,4.37,0,0,0,2-.32c.84.14,1-.27,1-.27a12.69,12.69,0,0,0,4.47-3l2.85-2.63c.55-.22.49-1.19.49-1.19a4.52,4.52,0,0,0-.82-2.13l.11-.36c.48-.18.46-.42.46-.42,0-.19-.15-.14-.15-.14l-.64.19.43-.62c.72-.26.59-.5.59-.5.65-.48-.2-.51-.2-.51-.39-.3-1.09,0-1.09,0-.57.17-.58.36-.58.36l-.13,1a3.07,3.07,0,0,0,.06,1.69c.41,1.32-.13,1.46-.13,1.46-.49.17-2.8,1.39-2.8,1.39A28.39,28.39,0,0,0,490,74a.64.64,0,0,1-.74.22,2.81,2.81,0,0,0-1,.16,9.81,9.81,0,0,0-2.16-.93l.19-.34c1.63-1,1.34-2,1.34-2,0,.36-.24.26-.24.26.71-4.11-2.86-4.74-2.86-4.74a2.05,2.05,0,0,0-2,.42A10,10,0,0,0,480.88,70a1.57,1.57,0,0,0-.58,1.41l-.27,1.1c-2.34-.32-2.64,1.09-2.64,1.09a19.21,19.21,0,0,0-3.25,2.33c-1.15.66-1.45,2.67-1.45,2.67a14,14,0,0,0-1.76,3.82c-.29.09-.53.62-.53.62a.74.74,0,0,0-.35.84c-1.73,1.82-2.66,5.88-2.66,5.88-.28,1.84-1.14,5.47-1.14,5.47a3.46,3.46,0,0,1-.47,1l-1.1,1-.46.65c-.55.64,0,.88,0,.88.23,1.46.53,1.49.53,1.49.23,1,.48,1,.48,1,.21.12.29-.35.29-.35.29,0,.52-1.25.52-1.25.15-1.18.73-1.25.73-1.25a.61.61,0,0,0,.3.3,2.84,2.84,0,0,0-.28,1.48l-.11.11a26.16,26.16,0,0,0-1.82,2.78,2.07,2.07,0,0,0-2.9-.58c-1.07-2.56-3.18,0-3.18,0a7,7,0,0,1-1.85,1.17ZM468.2,97a9,9,0,0,1,.9-3.5l.89-1.86a5.91,5.91,0,0,0,.51-2.38,4.47,4.47,0,0,1,1.3-2.43,6.58,6.58,0,0,0,1.05-1.14h.22l.58-.91a7.82,7.82,0,0,0,.18,1.85,1.72,1.72,0,0,0,0,1.86,6.49,6.49,0,0,0-2.09,3.36s-.93,1.09-.72,1.93a4.51,4.51,0,0,0-.79,1.67l-2,2.67Z" transform="translate(0.25 -17.7)"/><path class="cls-2" d="M510.82,78.43s-2.84,3-3,3.28-1.54,2.89,3,1.79c3.66-2.15,4.78-3.72,4.84-4.19a.77.77,0,0,0-.27-.7v-.7a4.34,4.34,0,0,0,1.25-3.44,19.13,19.13,0,0,1,3.12-1.11l.35.4,4.08-2.64a5.7,5.7,0,0,0,2.84-1.2c.76-.89,2.14.15,4-3.35.68-1.19,1.25-1,1.25-1a47.27,47.27,0,0,0,7.89-6.41,56.8,56.8,0,0,0,8.31-1l1-1.12a24.66,24.66,0,0,0,3.19.89,57.92,57.92,0,0,1,7.08.52,4.52,4.52,0,0,1,1.89,1c.15.21,1.72.91.91-.17-.38-.51,0-.05,1.47.06,2.17.31.63-.71.26-.89,1.31.6,1.71-.38.35-.71.4.17,1.26,0,.58-.57-1.16-.73-2.14-.76-4.62-.41-3.19-.15-4.55-2.35-9.23-2.82,0-.14.11-.31.11-.31s-6.78-1.71-8.38-3.11c-1.07-.91-4.45-1-4.45-1l-.56-.57-.09-.82a9.86,9.86,0,0,0,.73-6.28c-1.77-3.07-4.48-2.21-4.48-2.21a3.93,3.93,0,0,0-3,3.33,2.76,2.76,0,0,0,.75.89l0,1.06,0,.76s0,.07.29.06.42,1.51.42,1.51a37.17,37.17,0,0,1-6.6-1.43c-.18-.08-.19.33-.31.23-1.22.12-3.49-1.25-4.87-1.52-1.16-.38-3.43-.75-4.22-1a11.73,11.73,0,0,1-1.9-.78s-1-.45-1.21,0c-.16-.23-.62-.87-.82-.9s-.34.34-.22.74.19.27.57.75a2.48,2.48,0,0,0-.05,2.25c.46.29.38-.74.48-.71s0,.63.11.85.48,0,.52-.59c0-.27.11-.51.2-.27,0,.66.37.92.53-.18,0-.18.76-.58,2,.43.89.53,2.57,1.87,3.28,2.28.39.23,2.44,1.28,4.19,2.21.4.21-.16.5.14.64,1,.4,4.06,1.33,3.64,2.88a4.11,4.11,0,0,1-1.89,2.31,5.68,5.68,0,0,1-2.73-.73,25.7,25.7,0,0,0-5.62-2,6.17,6.17,0,0,1-3.35-1.38c-.72-.69-2.78-.55-2.78-.55a.91.91,0,0,0-.7-.79c-.65-.17-11.23-.54-11.23-.54l-2-2.41s-.45.31-.17,1.23-3-.64-4.17-1.32c-1.51-.78-2.57-.41-1.6,1.77s1.75,2.06,2.92,2.2a6.18,6.18,0,0,1,3.23,2.2,2.11,2.11,0,0,0,2.39-.47c1.68-1,7,1.82,7,1.82a6,6,0,0,0,3.37.4l0-.21a4.88,4.88,0,0,1,3.13,1.69c.29.35,6.73,7.3,6.73,7.3l-3.41,2.07.63,2.3s-4.73,2.66-5.19,3.76a6.19,6.19,0,0,0-.5,4.16c.48,1.35-1.3,2.48-1.3,2.48" transform="translate(0.25 -17.7)"/><path class="cls-2" d="M495.34,48.41a5.2,5.2,0,1,1-5.18-5.59,5.39,5.39,0,0,1,5.18,5.59" transform="translate(0.25 -17.7)"/><path class="cls-16" d="M525.26,153.68c16.43,3.17,27.37,20.09,24.43,37.79S531,221,514.61,217.8s-27.37-20.1-24.43-37.8,18.64-29.49,35.08-26.32" transform="translate(0.25 -17.7)"/><path class="cls-17" d="M506.76,208.78c-2.47-1-7.28-6.36-8.7-8.79-.8.67-1.56,1.34-2.27,2a29,29,0,0,0,15.83,13.1,19.46,19.46,0,0,1-4.86-6.34m8.85-5.3c.3.13.77.33,1.39.56a31.49,31.49,0,0,0,4.74,1.34,19.46,19.46,0,0,0,6.34.27,63.85,63.85,0,0,0,7.73-9.74c-.14-4.41-2.95-9.84-4.16-12l-.33-.58-1.53-.31c-2.31-.44-4.38-.73-6.37-1-1.22-.17-2.37-.32-3.54-.52-.17.14-.45.39-.82.74-.88.81-1.72,1.66-2.52,2.51a25.55,25.55,0,0,0-4.93,7.18,69.67,69.67,0,0,0,3.9,11.5l.1,0m-4,11.64.12,0-.12,0Zm-6-48.34a69.32,69.32,0,0,0-7.92,10.08c0,.24.07.64.14,1.14.11.84.31,2.14.62,3.62a26.82,26.82,0,0,0,2.83,7.94l2,.39,3,.57,4.75.91c1.91-4.58,6.62-9,8.29-10.45-.82-2.94-1.47-6-2.11-9.06-.19-.91-.39-1.86-.59-2.78a21.15,21.15,0,0,0-6.21-2.2h0l0-.16h0l0,.17a11.83,11.83,0,0,0-4.75-.16m22.35,39.73a20.63,20.63,0,0,1-6.33-.32,30.42,30.42,0,0,1-6.26-1.94,20.6,20.6,0,0,1-7.71,4.56,20,20,0,0,0,6,6.88c.46.12.94.22,1.42.31a26.54,26.54,0,0,0,11-.18c.29-.17.58-.34.86-.52a27.39,27.39,0,0,0,4.32-3.29c-1.24-.86-2.31-2.67-3.25-5.5m-32.53-5.19v0h0v0m5.1-11.49c-2.52-4.28-3.4-10.93-3.59-12.76a20,20,0,0,1-4-1.37,34.64,34.64,0,0,0-1.08,4.52,32.73,32.73,0,0,0,3.52,21.08c.74-.71,1.53-1.41,2.36-2.09-.29-3.53,1.54-7.32,2.75-9.38m44.36-19.55h0l.08.16c0-.05-.05-.1-.08-.16m-17.45-6.59c2.15.94,7.61,6.09,9,8.09a18.08,18.08,0,0,1,8.2,1.63c0-.59.09-1.19.14-1.73s.09-1,.12-1.4a29.1,29.1,0,0,0-16.47-14.12,9.65,9.65,0,0,1-2,.57,39.7,39.7,0,0,1,1.07,7m-21.77,2.23a13.49,13.49,0,0,1,4.84.21,22.16,22.16,0,0,1,6.4,2.25c1.52-1.07,7-4.14,9.76-4.7a39,39,0,0,0-1.14-7.11c-.91-.46-1.79-1-2.73-1.61h0a26.86,26.86,0,0,0-17.29,4.16,26.36,26.36,0,0,0,.17,6.8m38.51,31a20,20,0,0,1-2.11,8.43,31.71,31.71,0,0,0,6.18-14.31,30,30,0,0,0,.41-3.85,22.46,22.46,0,0,1-4.48,9.73M528.73,215a28,28,0,0,0,8.46-4.7,16.89,16.89,0,0,1-5.14,1.95,26.23,26.23,0,0,1-3.32,2.75m7.84-42.44A25.82,25.82,0,0,1,532,183c1.15,2,4.28,7.81,4.54,12.65a6.24,6.24,0,0,0,.67.15,53.56,53.56,0,0,0,6.29.66c3.23-3.64,4.35-9.13,4.61-10.73,0-.16,0-.28.06-.39a33,33,0,0,0-3.53-11,13.4,13.4,0,0,0-4-1.4,20.91,20.91,0,0,0-4.08-.37" transform="translate(0.25 -17.7)"/><g class="cls-18"><path class="cls-4" d="M519.93,244.28s66.3-1.59,88.22-22.25l-3.94-29.65s-28.09,10.32-84.28,9.26c-56.18,1.06-84.28-9.26-84.28-9.26L431.72,222c21.91,20.66,88.21,22.25,88.21,22.25" transform="translate(0.25 -17.7)"/><path d="M439.07,204a13.91,13.91,0,0,1,2.78.58,5.6,5.6,0,0,1,2.82,1.58,4.29,4.29,0,0,1,1.15,2.94,2.18,2.18,0,0,1-1.58,2.39v0a4.56,4.56,0,0,1,1.9,3.83,3.14,3.14,0,0,1-1,2.54c-.69.57-1.85.67-3.75.1a14.86,14.86,0,0,1-2.33-.91Zm2.13,5.76.71.21c1.13.34,1.74-.13,1.74-1.12a2,2,0,0,0-1.53-2,3.94,3.94,0,0,0-.92-.19Zm0,5.91a6.06,6.06,0,0,0,.84.29c1,.29,1.84,0,1.84-1.37a2.48,2.48,0,0,0-1.94-2.45l-.74-.23Z" transform="translate(0.25 -17.7)"/><path d="M453.33,215.5l-3.53-.92v3.16c1.31.35,2.62.69,3.94,1v2.47q-3.06-.76-6.12-1.61V206.3q3,.81,5.92,1.56v2.47c-1.25-.31-2.5-.64-3.74-1v2.77c1.17.31,2.35.62,3.53.91Z" transform="translate(0.25 -17.7)"/><path d="M459.41,211.8l-2.58-.6v-2.53q3.69.89,7.41,1.66v2.53c-.88-.19-1.76-.37-2.64-.57v10.79l-2.19-.49Z" transform="translate(0.25 -17.7)"/><path d="M467.6,211v5.12l3.61.68v-5.12l2.19.38v13.32l-2.19-.38v-5.57l-3.61-.68v5.57l-2.19-.44V210.57l2.19.44" transform="translate(0.25 -17.7)"/><path d="M481.11,221c-1.19-.17-2.39-.35-3.58-.54v3.16c1.33.21,2.66.41,4,.6v2.47q-3.11-.43-6.21-.95V212.4q3,.49,6,.92v2.47c-1.27-.18-2.54-.37-3.8-.57V218c1.19.19,2.39.37,3.58.54Z" transform="translate(0.25 -17.7)"/><path d="M486,214.11a13.39,13.39,0,0,1,2.85.06,4.69,4.69,0,0,1,2.88,1.06,3.46,3.46,0,0,1,1.18,2.73,2.71,2.71,0,0,1-1.61,2.68v0a3.66,3.66,0,0,1,1.94,3.47,3.74,3.74,0,0,1-1,2.73c-.71.7-1.9,1-3.84.79a12.22,12.22,0,0,1-2.39-.48Zm2.18,5.36.73.08c1.16.13,1.78-.46,1.78-1.44a1.59,1.59,0,0,0-1.56-1.71,4,4,0,0,0-.95,0Zm0,5.91a7,7,0,0,0,.86.14,1.54,1.54,0,0,0,1.88-1.72,2,2,0,0,0-2-2.09l-.76-.09Z" transform="translate(0.25 -17.7)"/><path d="M500.53,223l-3.6-.26v3.16c1.34.11,2.68.2,4,.29v2.47c-2.09-.13-4.17-.3-6.25-.48V214.87c2,.18,4,.34,6,.47v2.47l-3.82-.28v2.76l3.6.27Z" transform="translate(0.25 -17.7)"/><path d="M502.54,225.67a4.74,4.74,0,0,0,2.46,1,1.3,1.3,0,0,0,1.55-1.37c0-.83-.46-1.33-1.64-2a4.44,4.44,0,0,1-2.69-4.08c0-2.28,1.4-3.92,3.71-3.81a5,5,0,0,1,2.5.77l-.5,2.42a3.86,3.86,0,0,0-2.05-.72,1.19,1.19,0,0,0-1.42,1.21c0,.85.55,1.26,1.82,2a4.27,4.27,0,0,1,2.54,4.07c0,2.23-1.27,4.12-4,4a5.24,5.24,0,0,1-2.77-1l.45-2.46" transform="translate(0.25 -17.7)"/><path d="M512.21,218.39l-2.63-.08v-2.53c2.51.09,5,.13,7.53.14v2.53l-2.67,0v10.79l-2.23,0Z" transform="translate(0.25 -17.7)"/><path d="M522.92,229.21v-5.46c-1-2.6-2.07-5.21-3.1-7.83l2.53,0c.34,1.06.67,2.12,1,3.18s.51,1.67.76,2.53h0c.22-.83.45-1.61.74-2.56l1-3.23,2.49-.08c-1.08,2.63-2.15,5.25-3.23,7.87v5.55l-2.21.05" transform="translate(0.25 -17.7)"/><path d="M537.7,221.74c0,4.36-1.94,7.16-4.8,7.32s-4.61-2.77-4.61-6.56c0-4,1.87-7,4.76-7.2s4.65,2.76,4.65,6.44m-7.07.6c0,2.61.9,4.41,2.38,4.32s2.35-2.07,2.35-4.66c0-2.4-.84-4.39-2.36-4.31s-2.37,2.06-2.37,4.65" transform="translate(0.25 -17.7)"/><path d="M541.36,214.92v7.67c0,2.29.64,3.4,1.77,3.3s1.8-1.29,1.8-3.64v-7.67l2.2-.23v7.47c0,4.11-1.52,6.24-4.07,6.48s-3.92-1.52-3.92-5.76v-7.43l2.22-.19" transform="translate(0.25 -17.7)"/><path d="M559.13,225.7a5.39,5.39,0,0,1-2.5,1c-3.37.49-5.11-2.19-5.11-6,0-4.55,2.38-7.37,5.33-7.81a4.24,4.24,0,0,1,2.39.23c-.15.82-.3,1.64-.44,2.46a3.56,3.56,0,0,0-1.85-.21c-1.75.26-3.11,1.88-3.11,4.85,0,2.66,1.16,4.19,3.12,3.9a4.69,4.69,0,0,0,1.84-.71Z" transform="translate(0.25 -17.7)"/><path d="M563,222l-.69,3.53-2.28.38,3-13.82q1.44-.24,2.88-.51,1.5,6.39,3,12.76l-2.36.45-.75-3.29L563,222m2.46-2.69-.6-2.72c-.17-.76-.35-1.71-.49-2.48h0c-.15.81-.29,1.85-.45,2.64l-.57,2.93,2.14-.38" transform="translate(0.25 -17.7)"/><path d="M570.16,224.11V210.79l2.56-.52q1,2.23,2,4.45a38.33,38.33,0,0,1,1.58,4.22h0c-.14-1.73-.19-3.52-.19-5.53v-3.88l2-.45v13.32l-2.29.52-2.07-4.69c-.57-1.3-1.2-2.89-1.67-4.35l0,0c.06,1.75.09,3.62.09,5.79v4l-2,.41" transform="translate(0.25 -17.7)"/><path d="M582.93,208.09a15.93,15.93,0,0,1,2.81-1,3.71,3.71,0,0,1,2.83,0,2.36,2.36,0,0,1,1.15,2.29,4.15,4.15,0,0,1-1.58,3.28v0c1.09.12,1.9,1,1.9,2.76a5.38,5.38,0,0,1-1,3.1,6.39,6.39,0,0,1-3.77,2.22,11.61,11.61,0,0,1-2.35.4Zm2.15,4.55.71-.19a2.14,2.14,0,0,0,1.75-2.11c0-1-.55-1.39-1.53-1.13a5.56,5.56,0,0,0-.93.33Zm0,5.91a6.89,6.89,0,0,0,.84-.18,2.38,2.38,0,0,0,1.85-2.42c0-1.34-.87-1.64-1.95-1.35l-.74.19Z" transform="translate(0.25 -17.7)"/><path d="M597.19,211.59l-3.51,1.07v3.16c1.31-.39,2.62-.79,3.92-1.2v2.47q-3,1-6.08,1.83V205.6c2-.56,3.93-1.15,5.88-1.76v2.47l-3.72,1.13v2.76c1.18-.34,2.34-.7,3.51-1.06Z" transform="translate(0.25 -17.7)"/></g></g></svg>